<svg xmlns="http://www.w3.org/2000/svg" version="1.0" preserveAspectRatio="xMidYMid meet" viewBox="5.09 8.16 487.74 136.71">

<g transform="translate(0.000000,150.000000) scale(0.100000,-0.100000)" fill="#0E3E72" stroke="none">
<path d="M581 1404 c-254 -55 -460 -268 -516 -535 -76 -360 164 -725 530 -805 77 -17 225 -17 295 0 135 33 256 102 347 198 173 184 230 418 162 669 -61 226 -272 425 -504 474 -87 18 -229 18 -314 -1z m190 -141 c28 -45 29 -98 4 -137 -10 -14 -16 -28 -14 -29 2 -2 46 -34 97 -72 71 -53 89 -71 76 -76 -24 -8 -145 1 -166 12 -10 6 -36 4 -69 -4 -45 -12 -155 -15 -165 -4 -2 2 37 34 86 71 50 37 90 72 90 77 0 5 -7 26 -15 46 -8 19 -15 42 -15 51 0 20 48 102 60 102 4 0 19 -17 31 -37z m7 -325 c30 -30 4 -97 -37 -98 -40 -1 -68 69 -39 98 15 15 61 15 76 0z m-312 -19 c7 -12 141 -6 189 7 18 5 21 1 22 -31 1 -36 1 -36 -35 -31 -103 15 -170 18 -177 6 -4 -6 21 -74 55 -151 55 -122 66 -139 86 -139 29 0 29 -4 3 -46 -67 -109 -229 -120 -321 -23 -45 47 -48 67 -11 71 24 3 33 17 85 133 45 102 57 137 52 162 -3 17 -3 36 1 42 8 14 42 14 51 0z m461 -5 c51 -5 77 -3 87 5 32 27 79 -14 50 -44 -13 -13 -8 -30 52 -155 58 -120 71 -140 91 -140 30 0 29 -8 -7 -57 -58 -79 -167 -105 -252 -62 -46 24 -54 30 -86 75 -23 34 -20 44 13 44 19 0 32 21 85 135 35 76 59 142 56 151 -6 16 -57 15 -177 -2 -36 -5 -37 -5 -34 28 2 18 4 35 4 37 1 2 11 1 24 -3 12 -3 55 -9 94 -12z m-142 -350 l0 -269 -42 -3 -43 -3 0 273 0 273 42 -1 43 -1 0 -269z m82 -305 c3 -10 12 -19 20 -19 8 0 13 -7 11 -17 -3 -16 -19 -18 -158 -18 -139 0 -155 2 -158 18 -2 10 3 17 11 17 8 0 17 9 20 19 4 18 14 20 127 20 112 -1 123 -2 127 -20z"/>
<path d="M725 901 c-7 -12 12 -24 25 -16 11 7 4 25 -10 25 -5 0 -11 -4 -15 -9z"/>
<path d="M400 735 c-13 -33 -34 -80 -46 -105 l-22 -45 45 -3 c25 -2 47 -1 49 1 3 2 3 51 2 108 l-3 104 -25 -60z"/>
<path d="M460 683 l0 -103 45 0 c25 0 45 2 45 4 0 3 -20 49 -45 103 l-45 98 0 -102z"/>
<path d="M1050 680 l0 -100 50 0 c28 0 50 2 50 4 0 8 -92 196 -96 196 -2 0 -4 -45 -4 -100z"/>
<path d="M974 684 c-21 -48 -40 -91 -42 -95 -2 -5 17 -9 42 -9 l46 0 0 95 c0 52 -1 95 -3 95 -2 0 -21 -39 -43 -86z"/>
<path d="M1912 1283 c-12 -10 -29 -34 -40 -53 -10 -19 -80 -145 -155 -281 -75 -135 -139 -253 -143 -262 -5 -15 3 -17 80 -17 l86 0 23 38 c13 20 40 71 62 112 21 41 57 109 79 150 23 41 47 87 55 103 8 15 17 27 20 27 8 0 101 -176 101 -189 0 -7 -29 -11 -74 -11 l-74 0 -28 -57 c-16 -32 -30 -61 -32 -65 -2 -5 62 -8 142 -8 l146 0 25 -50 25 -50 91 0 c49 0 88 3 86 8 -12 20 -180 325 -211 382 -20 36 -48 89 -63 119 -16 30 -42 69 -59 88 -27 28 -38 33 -77 33 -28 0 -52 -6 -65 -17z"/>
<path d="M2560 985 l0 -315 273 2 272 3 3 78 3 77 -196 0 -195 0 0 235 0 235 -80 0 -80 0 0 -315z"/>
<path d="M3602 1283 c-17 -15 -319 -548 -338 -596 -5 -15 3 -17 84 -17 l90 0 23 48 c49 99 203 382 208 382 8 0 101 -176 101 -190 0 -6 -30 -10 -73 -10 l-72 0 -32 -62 -32 -63 144 -3 145 -3 25 -49 25 -50 90 0 c50 0 90 2 90 5 0 3 -11 22 -23 43 -13 20 -43 72 -66 114 -23 43 -72 133 -109 200 -37 68 -76 141 -87 162 -11 21 -34 54 -51 72 -27 29 -38 34 -77 34 -28 0 -52 -6 -65 -17z"/>
<path d="M4290 1293 c-38 -14 -40 -29 -40 -330 l0 -293 80 0 80 0 0 203 0 202 58 -60 c31 -33 108 -117 171 -185 124 -136 156 -160 213 -160 39 0 65 18 73 53 3 12 4 146 3 297 l-3 275 -77 3 -78 3 0 -181 c0 -99 -3 -180 -7 -180 -5 0 -80 77 -167 171 -87 94 -170 175 -183 180 -26 10 -98 11 -123 2z"/>
<path d="M1633 373 c-28 -65 -53 -128 -57 -140 -11 -34 12 -37 32 -4 12 23 25 31 47 32 17 1 46 3 66 4 33 2 38 -2 53 -31 18 -39 36 -45 35 -11 -1 29 -101 259 -115 264 -7 2 -34 -48 -61 -114z m106 -65 c1 -15 -8 -18 -43 -18 -25 0 -47 4 -51 9 -3 5 7 36 21 68 l26 58 24 -50 c12 -27 23 -58 23 -67z"/>
<path d="M1887 483 c-12 -11 -8 -271 4 -279 21 -13 29 22 29 138 0 135 -8 167 -33 141z"/>
<path d="M2144 477 c-2 -7 -3 -71 -2 -142 2 -92 7 -130 16 -133 8 -2 12 11 12 47 l0 51 41 0 c71 0 108 31 109 92 0 50 -8 66 -41 83 -36 19 -128 20 -135 2z m126 -37 c45 -45 16 -103 -51 -104 l-44 -1 -3 49 c-2 27 -1 55 2 62 8 22 73 17 96 -6z"/>
<path d="M2394 477 c-2 -7 -3 -71 -2 -143 l3 -129 98 0 c120 0 137 19 20 23 l-83 3 0 49 0 49 57 3 c81 4 85 28 4 28 l-61 0 0 50 0 50 80 0 c64 0 80 3 80 15 0 12 -17 15 -95 15 -69 0 -97 -4 -101 -13z"/>
<path d="M2678 484 c-13 -12 -10 -272 3 -280 17 -10 29 16 29 67 0 44 1 45 28 41 22 -3 37 -17 62 -58 18 -30 36 -54 41 -54 21 0 18 25 -9 68 l-29 48 23 28 c30 35 31 77 1 112 -20 23 -34 28 -83 32 -32 2 -62 0 -66 -4z m110 -40 c24 -17 30 -65 10 -82 -7 -5 -30 -12 -50 -14 l-38 -4 0 58 c0 57 1 58 28 58 15 0 38 -7 50 -16z"/>
<path d="M2990 448 c-50 -108 -99 -232 -94 -240 10 -15 22 -8 41 25 19 32 22 33 83 32 59 0 64 -2 79 -29 18 -31 37 -35 34 -7 -4 30 -105 261 -115 261 -4 0 -17 -19 -28 -42z m58 -87 c12 -32 22 -61 22 -65 0 -3 -22 -6 -50 -6 -36 0 -50 4 -50 14 0 18 41 116 49 116 3 0 16 -27 29 -59z"/>
<path d="M3206 474 c-3 -9 -6 -67 -6 -129 0 -62 3 -120 6 -129 9 -23 109 -22 154 2 93 49 92 204 -1 254 -44 24 -144 25 -153 2z m134 -29 c16 -9 36 -29 45 -45 42 -82 -14 -170 -110 -170 l-35 0 0 115 0 115 35 0 c20 0 49 -7 65 -15z"/>
<path d="M3525 479 c-10 -26 -1 -269 10 -272 14 -3 19 263 6 276 -7 7 -12 5 -16 -4z"/>
<path d="M3654 477 c-2 -7 -3 -71 -2 -143 l3 -129 88 0 c108 0 121 18 17 25 l-75 5 -3 128 c-1 76 -7 127 -13 127 -5 0 -12 -6 -15 -13z"/>
<path d="M3982 473 c-22 -42 -102 -243 -102 -258 0 -25 18 -17 35 15 15 29 18 30 86 30 64 0 70 -2 79 -24 11 -30 28 -42 35 -23 7 16 -98 270 -113 275 -6 2 -15 -5 -20 -15z m46 -111 c12 -32 22 -61 22 -65 0 -4 -22 -7 -50 -7 -27 0 -50 4 -50 9 0 16 43 121 49 121 3 0 16 -26 29 -58z"/>
<path d="M4192 348 c3 -168 21 -197 26 -40 1 56 6 102 10 102 4 0 43 -47 86 -105 43 -58 84 -104 90 -102 15 5 21 266 6 281 -20 20 -30 -17 -30 -118 l0 -98 -82 108 c-46 59 -89 110 -96 112 -10 3 -12 -27 -10 -140z"/>
</g>
</svg>