<svg xmlns="http://www.w3.org/2000/svg" xmlns:xlink="http://www.w3.org/1999/xlink" xmlns:xodm="http://www.corel.com/coreldraw/odm/2003" xml:space="preserve" version="1.1" style="shape-rendering:geometricPrecision; text-rendering:geometricPrecision; image-rendering:optimizeQuality; fill-rule:evenodd; clip-rule:evenodd" viewBox="8603.17 13365.34 3640.62 3617.21">
 <defs>
  <style type="text/css">
   <![CDATA[
    .fil0 {fill:#0E3E72;fill-rule:nonzero}
   ]]>
  </style>
 </defs>
 <g id="Layer_x0020_1">
  <metadata id="CorelCorpID_0Corel-Layer"/>
  <g id="_105553154432800">
   <path class="fil0" d="M10005.62 13403.39c-672.04,145.52 -1217.08,709.08 -1365.25,1415.52 -201.08,952.5 433.92,1918.23 1402.29,2129.9 203.73,44.98 595.31,44.98 780.52,0 357.19,-87.31 677.33,-269.88 918.1,-523.88 457.73,-486.83 608.54,-1105.96 428.63,-1770.06 -161.4,-597.96 -719.67,-1124.48 -1333.5,-1254.13 -230.19,-47.63 -605.9,-47.63 -830.79,2.65zm502.71 373.06c74.08,119.06 76.73,259.29 10.58,362.48 -26.46,37.04 -42.33,74.08 -37.04,76.73 5.29,5.29 121.71,89.96 256.65,190.5 187.85,140.23 235.48,187.85 201.08,201.08 -63.5,21.17 -383.65,-2.65 -439.21,-31.75 -26.46,-15.88 -95.25,-10.58 -182.56,10.58 -119.06,31.75 -410.1,39.69 -436.56,10.58 -5.29,-5.29 97.9,-89.96 227.54,-187.85 132.29,-97.9 238.13,-190.5 238.13,-203.73 0,-13.23 -18.52,-68.79 -39.69,-121.71 -21.17,-50.27 -39.69,-111.13 -39.69,-134.94 0,-52.92 127,-269.88 158.75,-269.88 10.58,0 50.27,44.98 82.02,97.9l0 0.01zm18.52 859.9c79.38,79.38 10.58,256.65 -97.9,259.29 -105.83,2.65 -179.92,-182.56 -103.19,-259.29 39.69,-39.69 161.4,-39.69 201.08,0l0.01 0zm-825.5 50.27c18.52,31.75 373.06,15.88 500.06,-18.52 47.63,-13.23 55.56,-2.65 58.21,82.02 2.65,95.25 2.65,95.25 -92.6,82.02 -272.52,-39.69 -449.79,-47.63 -468.31,-15.88 -10.58,15.88 55.56,195.79 145.52,399.52 145.52,322.79 174.63,367.77 227.54,367.77 76.73,0 76.73,10.58 7.94,121.71 -177.27,288.4 -605.9,317.5 -849.31,60.85 -119.06,-124.35 -127,-177.27 -29.1,-187.85 63.5,-7.94 87.31,-44.98 224.9,-351.9 119.06,-269.88 150.81,-362.48 137.58,-428.63 -7.94,-44.98 -7.94,-95.25 2.65,-111.13 21.17,-37.04 111.13,-37.04 134.94,0l-0.02 0.02zm1219.73 13.23c134.94,13.23 203.73,7.94 230.19,-13.23 84.67,-71.44 209.02,37.04 132.29,116.42 -34.4,34.4 -21.17,79.38 137.58,410.1 153.46,317.5 187.85,370.42 240.77,370.42 79.38,0 76.73,21.17 -18.52,150.81 -153.46,209.02 -441.85,277.81 -666.75,164.04 -121.71,-63.5 -142.88,-79.38 -227.54,-198.44 -60.85,-89.96 -52.92,-116.42 34.4,-116.42 50.27,0 84.67,-55.56 224.9,-357.19 92.6,-201.08 156.1,-375.71 148.17,-399.52 -15.88,-42.33 -150.81,-39.69 -468.31,5.29 -95.25,13.23 -97.9,13.23 -89.96,-74.08 5.29,-47.63 10.58,-92.6 10.58,-97.9 2.65,-5.29 29.1,-2.65 63.5,7.94 31.75,7.94 145.52,23.81 248.71,31.75l-0.01 0.01zm-375.71 926.04l0 711.73 -111.13 7.94 -113.77 7.94 0 -722.31 0 -722.31 111.13 2.65 113.77 2.65 0 711.73 0 -0.02zm216.96 806.98c7.94,26.46 31.75,50.27 52.92,50.27 21.17,0 34.4,18.52 29.1,44.98 -7.94,42.33 -50.27,47.63 -418.04,47.63 -367.77,0 -410.1,-5.29 -418.04,-47.63 -5.29,-26.46 7.94,-44.98 29.1,-44.98 21.17,0 44.98,-23.81 52.92,-50.27 10.58,-47.63 37.04,-52.92 336.02,-52.92 296.33,2.65 325.44,5.29 336.02,52.92z"/>
   <path class="fil0" d="M10386.62 14734.24c-18.52,31.75 31.75,63.5 66.15,42.33 29.1,-18.52 10.58,-66.15 -26.46,-66.15 -13.23,0 -29.1,10.58 -39.69,23.81l0 0.01z"/>
   <path class="fil0" d="M9526.73 15173.45c-34.4,87.31 -89.96,211.67 -121.71,277.81l-58.21 119.06 119.06 7.94c66.15,5.29 124.35,2.65 129.65,-2.65 7.94,-5.29 7.94,-134.94 5.29,-285.75l-7.94 -275.17 -66.15 158.75 0.01 0.01z"/>
   <path class="fil0" d="M9685.48 15311.04l0 272.52 119.06 0c66.15,0 119.06,-5.29 119.06,-10.58 0,-7.94 -52.92,-129.65 -119.06,-272.52l-119.06 -259.29 0 269.88 0 -0.01z"/>
   <path class="fil0" d="M11246.52 15318.97l0 264.58 132.29 0c74.08,0 132.29,-5.29 132.29,-10.58 0,-21.17 -243.42,-518.58 -254,-518.58 -5.29,0 -10.58,119.06 -10.58,264.58z"/>
   <path class="fil0" d="M11045.43 15308.39c-55.56,127 -105.83,240.77 -111.13,251.35 -5.29,13.23 44.98,23.81 111.13,23.81l121.71 0 0 -251.35c0,-137.58 -2.65,-251.35 -7.94,-251.35 -5.29,0 -55.56,103.19 -113.77,227.54z"/>
  </g>
 </g>
</svg>